HIERARCHY
ROOT Hips
{
     OFFSET 9.89126 99.05240 -33.79170
     CHANNELS 6 Xposition Yposition Zposition Zrotation Xrotation Yrotation
     JOINT Spine
     {
          OFFSET 0.00000 11.89050 0.00000
          CHANNELS 3 Zrotation Xrotation Yrotation
          JOINT Spine1
          {
               OFFSET 0.00000 25.65740 0.12766
               CHANNELS 3 Zrotation Xrotation Yrotation
               JOINT HEad
               {
                    OFFSET 0.00000 8.73416 0.01134
                    CHANNELS 3 Zrotation Xrotation Yrotation
                    End Site
                    {
                         OFFSET -0.29000 12.77420 2.51395
                    }
               }
               JOINT LeftShoulder1
               {
                    OFFSET 8.99000 -0.36225 -0.22000
                    CHANNELS 3 Zrotation Xrotation Yrotation
                    JOINT LeftArm
                    {
                         OFFSET 10.28270 -0.00338 0.32212
                         CHANNELS 3 Zrotation Xrotation Yrotation
                         JOINT LeftForeArm
                         {
                              OFFSET 32.76690 0.09914 -1.42434
                              CHANNELS 3 Zrotation Xrotation Yrotation
                              JOINT LeftHand
                              {
                                   OFFSET 27.56430 0.08536 1.02216
                                   CHANNELS 3 Zrotation Xrotation Yrotation
                                   End Site
                                   {
                                        OFFSET 16.74430 -0.60000 1.50291
                                   }
                              }
                         }
                    }
               }
               JOINT RightShoulder
               {
                    OFFSET -8.99000 -0.36225 -0.22000
                    CHANNELS 3 Zrotation Xrotation Yrotation
                    JOINT RightArm
                    {
                         OFFSET -10.28270 -0.00338 0.32212
                         CHANNELS 3 Zrotation Xrotation Yrotation
                         JOINT RightForeArm
                         {
                              OFFSET -32.89710 0.09914 -1.42434
                              CHANNELS 3 Zrotation Xrotation Yrotation
                              JOINT RightHand
                              {
                                   OFFSET -27.49210 0.08536 1.02216
                                   CHANNELS 3 Zrotation Xrotation Yrotation
                                   End Site
                                   {
                                        OFFSET -16.63120 -0.60000 1.50291
                                   }
                              }
                         }
                    }
               }
          }
     }
     JOINT LeftUpLeg
     {
          OFFSET 8.94580 -8.66707 0.10165
          CHANNELS 3 Zrotation Xrotation Yrotation
          JOINT LeftLeg
          {
               OFFSET 0.00000 -44.42270 1.37270
               CHANNELS 3 Zrotation Xrotation Yrotation
               JOINT LeftFoot
               {
                    OFFSET -0.25355 -42.09240 -1.46059
                    CHANNELS 3 Zrotation Xrotation Yrotation
                    JOINT LeftToes
                    {
                         OFFSET -0.04000 -4.41509 8.49910
                         CHANNELS 3 Zrotation Xrotation Yrotation
                         End Site
                         {
                              OFFSET 0.08000 -0.04745 9.77979
                         }
                    }
               }
          }
     }
     JOINT RightUpLeg
     {
          OFFSET -8.94580 -8.66707 0.10165
          CHANNELS 3 Zrotation Xrotation Yrotation
          JOINT RightLeg
          {
               OFFSET 0.00000 -44.42270 1.37270
               CHANNELS 3 Zrotation Xrotation Yrotation
               JOINT RightFoot
               {
                    OFFSET 0.25355 -42.09240 -1.46059
                    CHANNELS 3 Zrotation Xrotation Yrotation
                    JOINT RightToes
                    {
                         OFFSET 0.04000 -4.41509 8.49910
                         CHANNELS 3 Zrotation Xrotation Yrotation
                         End Site
                         {
                              OFFSET -0.08000 -0.13745 9.77979
                         }
                    }
               }
          }
     }
}
MOTION
Frames: 7
Frame Time: 0.01667
57.25870 93.81310 11.72370 -7.09996 1.53048 -85.81390 1.01296 13.35270 0.39029 -1.97545 26.29910 1.75864 -12.18690 16.52530 2.92761 0.00000 0.00000 0.00000 -101.72500 -12.09020 -68.81050 15.61410 32.55860 -116.40400 36.37690 12.23770 11.72180 13.06530 1.37342 5.96623 80.50890 -5.24076 82.49470 1.75260 32.56840 94.59240 -7.38546 9.15761 8.57756 16.68520 -20.80520 13.60000 -17.17870 41.75400 41.29960 8.39956 -6.84733 -0.03408 -25.52380 -25.73160 -14.07040 -15.32020 -21.25260 -11.53650 23.66260 58.88590 -49.12780 6.60290 -9.28718 -0.08765 13.05480 27.62340 -42.96110 
56.95240 93.43430 11.04520 -7.67322 0.97734 -81.76330 0.81230 13.51820 0.69896 -2.15742 26.64470 2.43822 -11.84930 16.36290 2.72599 0.00000 0.00000 0.00000 -101.64100 -12.02220 -69.15600 15.79950 32.55820 -116.43200 36.59900 12.27960 11.80480 12.68700 1.31116 5.73573 80.84280 -4.93081 82.63050 2.50917 32.60990 94.15780 -7.55391 9.14948 8.39751 15.89020 -21.38630 13.13410 -15.63390 42.79230 37.59190 7.32083 -6.89671 -0.02288 -26.31000 -25.16620 -16.01610 -15.68430 -22.58240 -11.16330 24.56640 63.17820 -48.64700 7.84573 -6.97376 -0.21462 15.94190 31.57670 -43.04810 
56.55210 93.05210 10.31020 -8.22860 0.43378 -77.71290 0.56763 13.67040 1.00281 -2.30379 26.96190 3.07753 -11.65450 16.33130 2.69646 0.00000 0.00000 0.00000 -101.48400 -12.04610 -69.53250 16.00840 32.51370 -116.47800 36.85640 12.34210 11.94310 12.37950 1.26859 5.59311 81.16720 -4.63363 82.60940 3.80262 32.66060 93.46280 -7.67700 9.13552 8.40343 15.19980 -22.09710 12.71130 -14.05340 44.05110 34.03120 6.12810 -7.11583 -0.00172 -26.25550 -23.94060 -17.51150 -15.63350 -23.69930 -10.80510 24.80620 67.05590 -46.91400 8.70894 -5.31042 -0.33620 17.45770 34.28860 -41.34290 
56.05420 92.69880 9.52680 -8.73083 -0.10387 -73.61560 0.35577 13.79720 1.24762 -2.45072 27.22690 3.59636 -11.61700 16.43720 2.91951 0.00000 0.00000 0.00000 -101.25800 -12.22470 -69.88890 16.19930 32.44550 -116.56200 37.09400 12.41970 12.13040 12.19160 1.25662 5.59607 81.49040 -4.35041 82.44320 5.12233 32.70590 92.79620 -7.73958 9.12410 8.47712 14.58440 -22.89090 12.22720 -12.54450 45.31680 30.63380 4.97827 -7.35704 0.01581 -25.61390 -22.45030 -18.48650 -15.22640 -24.54400 -10.40890 24.37510 70.32050 -44.37340 9.08927 -4.56424 -0.39865 17.16200 35.26010 -37.92600 
55.45180 92.38960 8.71133 -9.14926 -0.65890 -69.55000 0.19858 13.90080 1.44844 -2.64882 27.44240 4.04742 -11.64470 16.70030 3.30539 0.00000 0.00000 0.00000 -101.00400 -12.51600 -70.19190 16.31330 32.37600 -116.65100 37.25440 12.48730 12.30240 12.13520 1.27110 5.71648 81.76010 -4.10856 82.18970 6.08241 32.75300 92.33230 -7.79397 9.11030 8.60278 14.00140 -23.67160 11.66130 -11.12700 46.42200 27.29160 4.01302 -7.36894 0.01885 -25.00020 -21.34920 -19.01890 -14.55910 -25.16840 -9.87804 23.22840 72.92540 -41.44520 9.08512 -4.86682 -0.37644 15.43600 34.39020 -33.73060 
54.74560 92.12350 7.88591 -9.44871 -1.22230 -65.63200 0.06432 13.97190 1.65568 -2.92660 27.58560 4.53033 -11.54230 17.09470 3.64584 0.00000 0.00000 0.00000 -100.73300 -12.84480 -70.39690 16.31380 32.28050 -116.66700 37.31050 12.49520 12.31370 12.23960 1.30614 5.90083 81.86180 -3.95198 81.88730 6.51992 32.79290 92.09400 -7.87140 9.08662 8.84278 13.45870 -24.39510 11.11330 -9.77506 47.32310 23.90960 3.28130 -7.14481 0.01286 -24.66240 -20.84850 -19.17530 -13.71930 -25.66980 -9.10785 21.32190 74.85620 -38.33290 8.92426 -6.08360 -0.28517 13.18020 32.15550 -29.99210 
53.95290 91.89930 7.07422 -9.59831 -1.74464 -61.89940 -0.08008 13.99570 1.89439 -3.26549 27.62190 5.07829 -11.22360 17.46380 3.81531 0.00000 0.00000 0.00000 -100.47600 -13.18020 -70.48030 16.23090 32.14230 -116.59200 37.25800 12.42050 12.09550 12.51440 1.35587 6.10027 81.74060 -3.88662 81.55140 6.43143 32.79640 92.05320 -7.92481 9.05762 9.20655 12.98130 -25.10430 10.66660 -8.47418 48.06580 20.49210 2.70667 -6.96673 0.01013 -24.19180 -20.52170 -18.87410 -12.80040 -26.11240 -8.06405 18.72590 76.05850 -35.05310 8.90248 -7.88973 -0.15521 11.17640 29.49350 -27.42020 
